<mxfile host="app.diagrams.net" modified="2021-03-01T04:08:07.492Z" agent="5.0 (Macintosh; Intel Mac OS X 10_14_6) AppleWebKit/537.36 (KHTML, like Gecko) Chrome/88.0.4324.146 Safari/537.36" etag="8aA0Ke3hw86Pzya8mX-0" version="14.4.3" type="github">
  <diagram id="Neu-hRkQKj7kf0GVDtFO" name="Page-1">
    <mxGraphModel dx="946" dy="534" grid="1" gridSize="10" guides="1" tooltips="1" connect="1" arrows="1" fold="1" page="1" pageScale="1" pageWidth="827" pageHeight="1169" math="0" shadow="0">
      <root>
        <mxCell id="0" />
        <mxCell id="1" parent="0" />
        <mxCell id="tlXyCQ8oj2wf3LCUAYG6-1" value="" style="shape=umlActor;verticalLabelPosition=bottom;verticalAlign=top;html=1;outlineConnect=0;" vertex="1" parent="1">
          <mxGeometry x="300" y="30.5" width="30" height="60" as="geometry" />
        </mxCell>
        <mxCell id="tlXyCQ8oj2wf3LCUAYG6-2" value="Datahub" style="rounded=0;whiteSpace=wrap;html=1;" vertex="1" parent="1">
          <mxGeometry x="120" y="110" width="470" height="50" as="geometry" />
        </mxCell>
        <mxCell id="tlXyCQ8oj2wf3LCUAYG6-3" value="" style="rounded=0;whiteSpace=wrap;html=1;" vertex="1" parent="1">
          <mxGeometry x="120" y="230" width="470" height="100" as="geometry" />
        </mxCell>
        <mxCell id="tlXyCQ8oj2wf3LCUAYG6-4" value="table1.merger" style="rounded=0;whiteSpace=wrap;html=1;fillColor=#d5e8d4;strokeColor=#82b366;" vertex="1" parent="1">
          <mxGeometry x="140" y="260" width="110" height="40" as="geometry" />
        </mxCell>
        <mxCell id="tlXyCQ8oj2wf3LCUAYG6-5" value="table1.merger" style="rounded=0;whiteSpace=wrap;html=1;fillColor=#d5e8d4;strokeColor=#82b366;" vertex="1" parent="1">
          <mxGeometry x="260" y="260" width="110" height="40" as="geometry" />
        </mxCell>
        <mxCell id="tlXyCQ8oj2wf3LCUAYG6-7" value="网易易数" style="text;html=1;strokeColor=none;fillColor=none;align=center;verticalAlign=middle;whiteSpace=wrap;rounded=0;" vertex="1" parent="1">
          <mxGeometry x="130" y="230" width="90" height="20" as="geometry" />
        </mxCell>
        <mxCell id="tlXyCQ8oj2wf3LCUAYG6-8" value="table3.merger" style="rounded=0;whiteSpace=wrap;html=1;fillColor=#d5e8d4;strokeColor=#82b366;" vertex="1" parent="1">
          <mxGeometry x="380" y="260" width="110" height="40" as="geometry" />
        </mxCell>
        <mxCell id="tlXyCQ8oj2wf3LCUAYG6-9" value="。。。" style="text;html=1;strokeColor=none;fillColor=none;align=center;verticalAlign=middle;whiteSpace=wrap;rounded=0;" vertex="1" parent="1">
          <mxGeometry x="510" y="270" width="40" height="20" as="geometry" />
        </mxCell>
        <mxCell id="tlXyCQ8oj2wf3LCUAYG6-10" value="猛犸Open API" style="rounded=0;whiteSpace=wrap;html=1;fillColor=#fff2cc;strokeColor=none;" vertex="1" parent="1">
          <mxGeometry x="120" y="190" width="470" height="20" as="geometry" />
        </mxCell>
        <mxCell id="tlXyCQ8oj2wf3LCUAYG6-11" value="提交任务" style="endArrow=classic;html=1;" edge="1" parent="1">
          <mxGeometry width="50" height="50" relative="1" as="geometry">
            <mxPoint x="194.86" y="160" as="sourcePoint" />
            <mxPoint x="194.86" y="190" as="targetPoint" />
          </mxGeometry>
        </mxCell>
        <mxCell id="tlXyCQ8oj2wf3LCUAYG6-12" value="配置调度" style="endArrow=classic;html=1;" edge="1" parent="1">
          <mxGeometry width="50" height="50" relative="1" as="geometry">
            <mxPoint x="210" y="210" as="sourcePoint" />
            <mxPoint x="210" y="240" as="targetPoint" />
          </mxGeometry>
        </mxCell>
        <mxCell id="tlXyCQ8oj2wf3LCUAYG6-13" value="创建任务" style="endArrow=classic;html=1;entryX=0.177;entryY=-0.019;entryDx=0;entryDy=0;entryPerimeter=0;" edge="1" parent="1" target="tlXyCQ8oj2wf3LCUAYG6-5">
          <mxGeometry width="50" height="50" relative="1" as="geometry">
            <mxPoint x="280" y="210" as="sourcePoint" />
            <mxPoint x="280" y="240" as="targetPoint" />
          </mxGeometry>
        </mxCell>
        <mxCell id="tlXyCQ8oj2wf3LCUAYG6-14" value="HDFS" style="shape=cylinder3;whiteSpace=wrap;html=1;boundedLbl=1;backgroundOutline=1;size=15;" vertex="1" parent="1">
          <mxGeometry x="160" y="350" width="60" height="60" as="geometry" />
        </mxCell>
        <mxCell id="tlXyCQ8oj2wf3LCUAYG6-15" value="" style="shape=flexArrow;endArrow=classic;html=1;" edge="1" parent="1">
          <mxGeometry width="50" height="50" relative="1" as="geometry">
            <mxPoint x="200" y="300" as="sourcePoint" />
            <mxPoint x="200.29" y="360" as="targetPoint" />
          </mxGeometry>
        </mxCell>
        <mxCell id="tlXyCQ8oj2wf3LCUAYG6-16" value="" style="shape=flexArrow;endArrow=classic;html=1;" edge="1" parent="1">
          <mxGeometry width="50" height="50" relative="1" as="geometry">
            <mxPoint x="180" y="360" as="sourcePoint" />
            <mxPoint x="180" y="300" as="targetPoint" />
          </mxGeometry>
        </mxCell>
        <mxCell id="tlXyCQ8oj2wf3LCUAYG6-17" value="TiDB" style="shape=cylinder3;whiteSpace=wrap;html=1;boundedLbl=1;backgroundOutline=1;size=15;dashed=1;" vertex="1" parent="1">
          <mxGeometry x="414" y="340" width="60" height="70" as="geometry" />
        </mxCell>
        <mxCell id="tlXyCQ8oj2wf3LCUAYG6-18" value="" style="endArrow=classic;html=1;" edge="1" parent="1" source="tlXyCQ8oj2wf3LCUAYG6-8" target="tlXyCQ8oj2wf3LCUAYG6-17">
          <mxGeometry width="50" height="50" relative="1" as="geometry">
            <mxPoint x="400" y="290" as="sourcePoint" />
            <mxPoint x="450" y="240" as="targetPoint" />
          </mxGeometry>
        </mxCell>
        <mxCell id="tlXyCQ8oj2wf3LCUAYG6-19" value="Metrics Data" style="edgeLabel;html=1;align=center;verticalAlign=middle;resizable=0;points=[];" vertex="1" connectable="0" parent="tlXyCQ8oj2wf3LCUAYG6-18">
          <mxGeometry x="-0.3424" y="-2" relative="1" as="geometry">
            <mxPoint as="offset" />
          </mxGeometry>
        </mxCell>
        <mxCell id="tlXyCQ8oj2wf3LCUAYG6-20" value="" style="endArrow=classic;html=1;edgeStyle=orthogonalEdgeStyle;curved=1;" edge="1" parent="1" source="tlXyCQ8oj2wf3LCUAYG6-17" target="tlXyCQ8oj2wf3LCUAYG6-21">
          <mxGeometry width="50" height="50" relative="1" as="geometry">
            <mxPoint x="490" y="380" as="sourcePoint" />
            <mxPoint x="600" y="130" as="targetPoint" />
            <Array as="points">
              <mxPoint x="640" y="380" />
              <mxPoint x="640" y="130" />
            </Array>
          </mxGeometry>
        </mxCell>
        <mxCell id="tlXyCQ8oj2wf3LCUAYG6-21" value="performance tunner" style="rounded=0;whiteSpace=wrap;html=1;align=center;" vertex="1" parent="1">
          <mxGeometry x="460" y="115" width="115" height="40" as="geometry" />
        </mxCell>
        <mxCell id="tlXyCQ8oj2wf3LCUAYG6-23" value="任务调优" style="endArrow=classic;html=1;entryX=0.787;entryY=-0.036;entryDx=0;entryDy=0;entryPerimeter=0;" edge="1" parent="1" target="tlXyCQ8oj2wf3LCUAYG6-10">
          <mxGeometry width="50" height="50" relative="1" as="geometry">
            <mxPoint x="490" y="155" as="sourcePoint" />
            <mxPoint x="490" y="185" as="targetPoint" />
          </mxGeometry>
        </mxCell>
        <mxCell id="tlXyCQ8oj2wf3LCUAYG6-29" value="监控/告警" style="rounded=0;whiteSpace=wrap;html=1;" vertex="1" parent="1">
          <mxGeometry x="380" y="40" width="210" height="60" as="geometry" />
        </mxCell>
        <mxCell id="tlXyCQ8oj2wf3LCUAYG6-30" value="" style="shape=image;verticalLabelPosition=bottom;labelBackgroundColor=#ffffff;verticalAlign=top;aspect=fixed;imageAspect=0;image=https://miro.medium.com/max/480/1*UqgMgl_BvAyJvNb9eTy4Wg.png;" vertex="1" parent="1">
          <mxGeometry x="400" y="49.5" width="44.72" height="41" as="geometry" />
        </mxCell>
        <mxCell id="tlXyCQ8oj2wf3LCUAYG6-31" value="" style="endArrow=classic;html=1;edgeStyle=orthogonalEdgeStyle;curved=1;entryX=1;entryY=0.5;entryDx=0;entryDy=0;exitX=1.003;exitY=0.566;exitDx=0;exitDy=0;exitPerimeter=0;" edge="1" parent="1" source="tlXyCQ8oj2wf3LCUAYG6-17" target="tlXyCQ8oj2wf3LCUAYG6-29">
          <mxGeometry width="50" height="50" relative="1" as="geometry">
            <mxPoint x="484" y="390" as="sourcePoint" />
            <mxPoint x="585" y="140.00000000000006" as="targetPoint" />
            <Array as="points">
              <mxPoint x="650" y="380" />
              <mxPoint x="650" y="70" />
            </Array>
          </mxGeometry>
        </mxCell>
      </root>
    </mxGraphModel>
  </diagram>
</mxfile>
